<?xml version="1.0" encoding="UTF-8"?>
<svg id="Layer_2" xmlns="http://www.w3.org/2000/svg" version="1.1" viewBox="0 0 175 45">
  <!-- Generator: Adobe Illustrator 29.5.1, SVG Export Plug-In . SVG Version: 2.1.0 Build 141)  -->
  <defs>
    <style>
      .st0 {
        fill: #fff;
      }

      .st1 {
        fill: #df3b58;
      }

      .st2 {
        fill: #fbf7c1;
      }

      .st3 {
        fill: #fdea00;
      }

      .st4 {
        fill: #2f3061;
      }
    </style>
  </defs>
  <g>
    <g>
      <circle class="st1" cx="21.7" cy="22.5" r="21.1"/>
      <path class="st4" d="M21.7,43.8c-2.9,0-5.7-.6-8.3-1.7-2.5-1.1-4.8-2.6-6.8-4.6-2-2-3.5-4.2-4.6-6.8-1.1-2.6-1.7-5.4-1.7-8.3s.6-5.7,1.7-8.3c1.1-2.5,2.6-4.8,4.6-6.8,2-2,4.2-3.5,6.8-4.6,2.6-1.1,5.4-1.7,8.3-1.7s5.7.6,8.3,1.7c2.5,1.1,4.8,2.6,6.8,4.6,2,2,3.5,4.2,4.6,6.8,1.1,2.6,1.7,5.4,1.7,8.3s-.6,5.7-1.7,8.3c-1.1,2.5-2.6,4.8-4.6,6.8-2,2-4.2,3.5-6.8,4.6-2.6,1.1-5.4,1.7-8.3,1.7ZM21.7,1.6C10.1,1.6.7,11,.7,22.5s9.4,20.9,20.9,20.9,20.9-9.4,20.9-20.9S33.2,1.6,21.7,1.6Z"/>
    </g>
    <g>
      <circle class="st2" cx="21.7" cy="22.5" r="16.4"/>
      <path class="st4" d="M21.7,39.1c-4.4,0-8.6-1.7-11.7-4.9-3.1-3.1-4.9-7.3-4.9-11.7s1.7-8.6,4.9-11.7c3.1-3.1,7.3-4.9,11.7-4.9s8.6,1.7,11.7,4.9c3.1,3.1,4.9,7.3,4.9,11.7s-1.7,8.6-4.9,11.7c-3.1,3.1-7.3,4.9-11.7,4.9ZM21.7,6.3c-8.9,0-16.2,7.3-16.2,16.2s7.3,16.2,16.2,16.2,16.2-7.3,16.2-16.2S30.6,6.3,21.7,6.3Z"/>
    </g>
    <path class="st4" d="M31,20.2v11.6H12.3v-11.5c0-.5.2-1,.4-1.5.7-1.7,2.9-4.5,9-4.5s2.2,0,3,.3c.9.2,1.6.4,2.2.7,2.6,1.1,3.5,3,3.9,4,0,.2.1.5.2.7,0,0,0,0,0,0,0,0,0,.1,0,.2Z"/>
    <path class="st2" d="M26.9,15.8c0,0-.1,0-.2.1-.4.2-.8.3-1.1.4-.3,0-.7.1-1,0-.3,0-.7,0-1,0-.5,0-.9.1-1.4.2-.3,0-.7.2-.9.5-.2.2-.2.5-.1.8,0,.8,0,1.7,0,2.5,0,1.1,0,2.1,0,3.2,0,1.1,0,2.3,0,3.4,0,.9,0,1.8,0,2.8,0,.3,0,.6,0,.9,0,.1,0,.3,0,.4,0,.1-.1.3-.3.2,0,0,0,0,0,0,0,0,0-.1,0-.2,0,0,0-.2,0-.2,0-.1,0-.2,0-.3,0-.1,0-.3,0-.4,0-.2,0-.4,0-.5,0-.2,0-.4,0-.6,0-.2,0-.4,0-.7,0-.2,0-.5,0-.7,0-.3,0-.5,0-.8,0-.3,0-.5,0-.8,0-.3,0-.5,0-.8,0-.3,0-.5,0-.8,0-.3,0-.5,0-.8,0-.3,0-.5,0-.8,0-.2,0-.5,0-.7,0-.2,0-.5,0-.7,0-.2,0-.4,0-.6,0-.2,0-.4,0-.6,0-.3,0-.6,0-.9,0-.2,0-.5-.3-.5,0,0-.1,0-.2,0,0,0,0,.1,0,.2,0,.2,0,.5,0,.7v10.6c0,.2,0,.3,0,.5,0,0,0,.2,0,.2,0,0-.1.2-.2.2-.2,0-.3-.3-.3-.4,0-.2,0-.3,0-.5v-8.4c0-.3,0-.6,0-.9s0-.6,0-.9,0,0,0,0c0,0-.1-.1-.2-.1,0,0-.2,0-.2.1,0,0,0,0,0,0,0,.2,0,.5,0,.7v8.1c0,.7,0,1.3,0,2s0,0,0,.1c0,0,0,0,0,.1-.1.2-.3.2-.5,0-.2-.2-.1-.4-.1-.6,0-.2,0-.5,0-.7v-7.9c0-.9,0-1.8,0-2.6,0-.3,0-.6,0-.9,0-.1,0-.2-.1-.3s-.2-.1-.3,0c0,0-.1.1-.1.2,0,1,0,1.9,0,2.9,0,1.3,0,2.5,0,3.8v2.1c0,.3,0,.6,0,1,0,.2-.1.5-.3.6,0,0,0,0-.1,0,0,0-.1,0-.2-.1-.4-.5-.3-1.3-.3-1.9,0-.7,0-1.4,0-2.1,0-.7,0-1.5,0-2.2,0-.4,0-.7,0-1.1,0-.2,0-.4,0-.6,0-.1,0-.3,0-.4,0,0,0,0,0-.1,0,0,0,0-.1,0-.2,0-.3.2-.3.3,0,.4,0,.7,0,1.1,0,.4,0,.8,0,1.2,0,.4,0,.8,0,1.1,0,.2,0,.3,0,.5,0,.2,0,.5-.1.7,0,0,0,0,0,0,0,0,0,0,0,0-.1-.1-.1-.3-.1-.5s0-.2,0-.2c0,0,0,0-.1,0,0,0,0,0-.1,0,0,0,0,0,0,.1s0,.1,0,.2c0,.2,0,.3,0,.5s0,.3,0,.5c0,.5,0,1,0,1.4,0,1.3,0,2.5,0,3.8,0,0,0,0,0,.1,0,0,0,.1-.1.1,0,0-.2.1-.3.2-.2,0-.3,0-.4-.2,0,0,0,0,0-.1,0,0,0,0,0-.1,0-.8,0-1.6,0-2.4,0-1.5,0-3,0-4.5,0-.8,0-1.6,0-2.4,0-.2,0-.4,0-.6,0-.3,0-.7,0-1,.2-1.2,1-2.4,2.1-3,.4-.3.9-.5,1.4-.5,0,0,2.7-.5,4.1-.5,1.4,0,2.2-1.2,2.2-1.2h0c.9,0,1.6.3,2.2.6,0,0,0,.1,0,.2,0,.1,0,.3,0,.3Z"/>
    <g>
      <path class="st4" d="M13.2,34.4l-.6-1.4c0-.1,0-.2-.1-.2s0,0,0,0,0,0-.2,0v-.2h1v.2c-.1,0-.2,0-.2.1s0,0,0,.2l.4.8.4-.8c0,0,0-.1,0-.2,0,0,0-.1-.2-.1v-.2h.6v.2c0,0-.1,0-.2,0,0,0-.1.2-.2.4l-.6,1.3h-.2Z"/>
      <path class="st4" d="M14.4,32.7v-.2h1v.2h0c0,0-.2,0-.2,0,0,0,0,0,0,.2v1.1c0,0,0,.1,0,.2s0,0,.2,0h0v.2h-1v-.2c0,0,.2,0,.2,0s0,0,0-.2v-1.1c0,0,0-.1,0-.2,0,0,0,0-.2,0Z"/>
      <path class="st4" d="M15.5,34.4v-.2c0,0,.2,0,.2,0s0,0,0-.2v-1.1c0,0,0-.1,0-.2,0,0,0,0-.2,0v-.2h.2c.2,0,.4,0,.5,0,.2,0,.4,0,.5,0,.1,0,.3,0,.4.2s.2.2.3.3,0,.3,0,.4,0,.3-.1.4c0,.1-.2.2-.3.3-.1,0-.2.1-.4.1-.1,0-.3,0-.6,0h-.7ZM16.2,32.7v1.3c0,0,0,.1,0,.2,0,0,0,0,0,0,0,0,0,0,.2,0,.2,0,.3,0,.4-.2,0-.1.1-.3.1-.6s0-.4,0-.5c0-.1-.1-.2-.2-.2,0,0-.2,0-.4,0Z"/>
      <path class="st4" d="M18.2,33.6l-.4-.7c0-.1-.1-.2-.2-.2,0,0,0,0-.1,0v-.2h.9v.2c0,0-.1,0-.1,0s0,0,0,.1l.3.5.3-.5s0,0,0-.1c0,0,0-.1-.2-.1v-.2h.6v.2c0,0-.1,0-.2,0,0,0-.1.1-.2.3l-.3.6v.4c0,0,0,.1,0,.2s0,0,.2,0h0v.2h-1v-.2h0c0,0,.2,0,.2,0s0,0,0-.2v-.4Z"/>
      <path class="st4" d="M19.6,33.9h0c0,.2,0,.2,0,.2,0,0,0,0,0,0s0,0,.1,0v.2h-.6v-.2c.1,0,.2,0,.3-.3l.6-1.4h.2l.6,1.4c0,.1.1.2.2.3,0,0,0,0,.1,0v.2h-.9v-.2c0,0,.1,0,.2,0,0,0,0,0,0,0s0,0,0,0h0s0-.2,0-.2h-.6ZM19.7,33.7h.4l-.2-.6-.2.6Z"/>
      <path class="st4" d="M21.7,34.4l-.6-1.4c0-.1,0-.2-.1-.2s0,0,0,0,0,0-.2,0v-.2h1v.2c-.1,0-.2,0-.2.1s0,0,0,.2l.4.8.4-.8c0,0,0-.1,0-.2,0,0,0-.1-.2-.1v-.2h.6v.2c0,0-.1,0-.2,0,0,0-.1.2-.2.4l-.6,1.3h-.2Z"/>
      <path class="st4" d="M22.9,33.9h0c0,.2,0,.2,0,.2,0,0,0,0,0,0s0,0,.1,0v.2h-.6v-.2c.1,0,.2,0,.3-.3l.6-1.4h.2l.6,1.4c0,.1.1.2.2.3,0,0,0,0,.1,0v.2h-.9v-.2c0,0,.1,0,.2,0,0,0,0,0,0,0s0,0,0,0h0s0-.2,0-.2h-.6ZM23,33.7h.4l-.2-.6-.2.6Z"/>
      <path class="st4" d="M25,33.5v.5c0,0,0,.1,0,.2,0,0,0,0,.2,0v.2h-1v-.2c0,0,.2,0,.2,0,0,0,0,0,0-.2v-1.1c0,0,0-.1,0-.2s0,0-.2,0v-.2h1v.2c0,0-.2,0-.2,0,0,0,0,0,0,.2v.4h.8v-.4c0,0,0-.1,0-.2,0,0,0,0-.2,0v-.2h1v.2c0,0-.2,0-.2,0,0,0,0,0,0,.2v1.1c0,0,0,.1,0,.2,0,0,0,0,.2,0v.2h-1v-.2c0,0,.2,0,.2,0,0,0,0,0,0-.2v-.5h-.8Z"/>
      <path class="st4" d="M26.7,32.7v-.2h1v.2h0c0,0-.2,0-.2,0s0,0,0,.2v1.1c0,0,0,.1,0,.2,0,0,0,0,.2,0h0v.2h-1v-.2c0,0,.2,0,.2,0,0,0,0,0,0-.2v-1.1c0,0,0-.1,0-.2,0,0,0,0-.2,0Z"/>
      <path class="st4" d="M28.2,33.1v.8c0,.1,0,.2,0,.3s.1,0,.2,0v.2h-.7v-.2c0,0,.1,0,.2,0,0,0,0,0,0,0,0,0,0,0,0-.2v-.9c0-.2,0-.3-.3-.3v-.2h.6l1,1.1v-.7c0-.2,0-.3-.3-.3v-.2h.7v.2s0,0-.1,0,0,0,0,0c0,0,0,0,0,.2v1.4h-.2l-1.2-1.3Z"/>
      <path class="st4" d="M30,32.7v-.2h1v.2h0c0,0-.2,0-.2,0s0,0,0,.2v1.1c0,0,0,.1,0,.2,0,0,0,0,.2,0h0v.2h-1v-.2c0,0,.2,0,.2,0,0,0,0,0,0-.2v-1.1c0,0,0-.1,0-.2,0,0,0,0-.2,0Z"/>
    </g>
    <g>
      <path class="st4" d="M12.3,15.6c0,0-.2.1-.3.2,0,0-.2,0-.3,0,0,0-.2,0-.2,0,0,0-.1,0-.2,0,0,0,0-.1,0-.2,0,0,0-.2.1-.3,0-.1.1-.2.2-.3.1-.1.3-.2.4-.2.1,0,.3,0,.4,0,0,0,0,0,0,0-.1-.2-.2-.3-.3-.4-.5.4-.8.6-1.3,1.1,0,0-.1,0-.2,0h0c.7-.7,1.1-1.1,1.9-1.7,0,0,.1,0,.2,0,0,0,0,0,0,0-.1.1-.2.2-.4.3.4.5.6.8,1,1.3,0,0,0,0,0,0-.1,0-.2,0-.3,0-.1-.1-.2-.2-.3-.4,0,0,0,0,0,0,0,0,0,.2-.1.3,0,.1-.1.2-.2.3ZM12.1,15.5c0,0,.1-.1.2-.2-.3,0-.4,0-.7,0,0,0,0,.1,0,.2,0,0,0,.1,0,.1,0,0,.1,0,.2,0,0,0,.2,0,.3-.1ZM11.7,15.1c.3,0,.4,0,.7,0,0,0,0-.1,0-.2,0,0,0-.1,0-.1,0,0-.1,0-.2,0,0,0-.2,0-.3.2,0,0-.1.1-.2.2Z"/>
      <path class="st4" d="M13.2,15.8c-.1,0-.2,0-.3,0,0,0,0-.1,0-.2,0,0,0-.1.1-.2,0,0,.2,0,.2-.1,0,0,.2,0,.2,0,0,0,.1,0,.2.1,0,0,0,.2,0,.3,0,0,0,.2-.2.2,0,0-.2.1-.3.1-.1,0-.2,0-.3,0-.1,0-.2,0-.3,0-.1,0-.2,0-.2,0,0,0,0-.1,0-.2,0,0,0,0,0,0,.2,0,.3,0,.4,0,.1,0,.2,0,.3,0,0,0,.2,0,.2-.1,0,0,.1-.1.2-.2,0,0,0-.1,0-.2,0,0,0,0-.1,0,0,0,0,0-.1,0,0,0,0,0-.1.1,0,0,0,.1,0,.2Z"/>
      <path class="st4" d="M14.1,14.8s0,0,0,0c-.1,0-.2,0-.3,0-.3-.5-.5-.7-.8-1.2-.1,0-.2.1-.3.2,0,0-.1,0-.2,0,0,0,0,0,0,0,.2-.1.2-.2.4-.3,0,0-.1,0-.2,0s0,0-.1-.1c0-.1,0-.2,0-.4,0-.2.2-.3.5-.5.2-.1.5-.3.9-.3.3,0,.7-.1,1.2,0,0,0,0,0,0,.1-.2,0-.4,0-.6,0-.2,0-.4,0-.6.1-.2,0-.4.1-.5.2-.2.1-.3.2-.4.3,0,.1,0,.2,0,.3,0,0,0,0,0,0,0,0,0,0,.1,0,.1,0,.2-.1.4-.2,0,0,.1,0,.2,0,0,0,0,0,0,0-.2,0-.2.1-.4.2.4.5.5.8.9,1.4Z"/>
      <path class="st4" d="M16.4,14s0,0,0,0c-.2-.2-.4-.2-.6-.4,0,.1,0,.2,0,.3,0,0,0,.2,0,.2,0,0,0,.1-.1.2,0,0,0,0-.1,0,0,0-.2,0-.3,0,0,0-.2,0-.3,0,0,0-.1,0-.2-.1,0,0,0,0,0,0,0,0-.1,0-.2,0,0,0-.1,0-.2,0,0,0-.1,0-.1,0,0,0,0,0,0-.1,0,0,0,0,0-.1,0,0,0,0,0,0s0,0,0,0c0,0,0,0,0,0,.1,0,.2,0,.3,0,0,0,.1,0,.1,0,0,0,0,0,0,0,0,0,0,0,0,0,0,0,0,0,0,0,0,0,.1,0,.2,0,0,0,0,0,0-.1,0,0,0,0,0-.1.1,0,.2,0,.3,0-.1.1-.2.2-.1.3,0,0,0,0,0,0,0,0,0,0,.1,0,0,0,.1,0,.2-.1,0,0,0-.1.1-.2,0,0,0-.2,0-.3,0,0,0,0,0,0-.1,0-.2,0-.3.1-.1,0-.2,0-.3,0-.1,0-.2,0-.3-.1,0,0-.2-.1-.2-.2,0,0,0-.2,0-.3,0,0,0-.2.2-.2,0,0,.2-.2.4-.2.1,0,.2,0,.3-.1,0,0,0-.1-.1-.2-.6.3-.9.5-1.5.8,0,0-.1,0-.2,0,0,0,0,0,0,0,.9-.6,1.3-.8,2.3-1.2,0,0,.1,0,.2.1h0c-.2.1-.3.1-.5.2,0,0,0,.1.1.2,0,0,0,.1,0,.2,0,0,0,0,0,0-.2,0-.3.1-.5.2-.1,0-.2.2-.3.2,0,0,0,.2,0,.3,0,0,0,.1.2.2,0,0,.1,0,.2,0,0,0,.2,0,.2,0,0,0,0,0,.1,0,0,0,0,0,.1,0,0,0-.1,0-.1,0,0,0,0,0,0,0,0,0,0,0,0,0,0,0,0,0,0,0,0,0,.1,0,.2,0,0,0,.1,0,.2,0,0,0,.1,0,.1,0,0,0,0,0,0,.1,0,0,0,0,0,.1.3.2.5.2.7.4,0,0,0,0-.1.2Z"/>
      <path class="st4" d="M17.1,12.8c-.1,0-.3,0-.4,0-.1,0-.3,0-.4-.1-.1,0-.2-.1-.3-.3.2-.1.3-.2.3-.3,0,0,0-.1,0-.2,0,0,0,0,0,0,0,0,0,0-.1,0-.2,0-.3.1-.6.2,0,0-.1,0-.2-.1,0,0,0,0,0,0,.9-.4,1.3-.5,2.2-.8,0,0,.1,0,.2.2,0,0,0,0,0,0-.2,0-.3,0-.4.1.2.6.3.9.4,1.6,0,0,0,0,0,0-.1,0-.2,0-.3,0,0-.1,0-.2-.1-.4,0,0-.1.1-.2.1,0,0-.1,0-.2,0ZM17.1,11.6c-.3,0-.4.1-.7.2.2,0,.2.2.3.3,0,0,0,.1,0,.2,0,0-.2.2-.3.3,0,0,0,0,.1.1,0,0,.1,0,.2,0,0,0,.1,0,.2,0,0,0,.2,0,.2-.1,0,0,.2-.1.2-.2,0-.3-.1-.5-.2-.8Z"/>
      <path class="st4" d="M19.2,12.7s0,0,0,0c-.3-.2-.4-.3-.7-.5-.1,0-.2-.2-.3-.2,0,0,0,0,0-.1,0,0,0,0,0,0,0,0,0,0,.1,0,0,0,0,0,.2,0,0,0,.1,0,.2,0,0,0,0-.1,0-.2,0,0,0-.1,0-.2,0,0,0,0,0,0,0,0,0,0,0,0-.3,0-.4,0-.7.2,0,0-.1,0-.2-.2,0,0,0,0,0,0,1.3-.3,2.4-.4,3.7-.5,0,0,0,.1.1.2,0,0,0,0,0,0-.2,0-.3,0-.4,0,0,.6,0,1,0,1.6,0,0,0,0,0,0-.1,0-.2,0-.3-.1,0-.2,0-.2,0-.4,0,0-.1,0-.2,0,0,0-.1,0-.2,0-.1,0-.3,0-.4,0-.1,0-.2,0-.3-.2,0,0,0,0,0,0,0,0-.1,0-.1,0,0,0-.1,0-.3,0-.1,0-.2,0-.4,0,0,0,0,0,0,.1,0,0,0,0-.2,0,.3.2.5.3.8.5,0,0,0,0-.1.2ZM19.1,11.1c-.2,0-.3,0-.4,0,0,0,0,0,0,.1,0,0,0,0,0,.1,0,0,0,.1,0,.2,0,0,0,.1,0,.2,0,0,.2,0,.2,0,0,0,.2,0,.2,0,0,0,.1,0,.2,0,0,0,0-.1,0-.2.2,0,.3-.1.4-.2,0,0,.1-.1.1-.2,0,0,0,0,0,0,0,0,0,0,0-.1-.2,0-.3,0-.6,0ZM20.7,10.9c-.3,0-.4,0-.7,0,.1.1.2.2.2.3,0,0,0,.1,0,.2,0,0-.2.1-.4.2,0,0,0,.1,0,.2,0,0,.1,0,.2,0,0,0,.1,0,.2,0,0,0,.2,0,.3,0,0,0,.2-.1.3-.2,0-.3,0-.5,0-.8Z"/>
      <path class="st4" d="M23,12.2c-.1,0-.2,0-.3,0,0,0-.2,0-.2-.2,0,0-.1-.1-.1-.2,0,0,0-.1,0-.2,0,0,0-.2.1-.2,0,0,.2-.1.3-.1.1,0,.2,0,.4,0,.2,0,.3,0,.4.1.1,0,.2.2.2.3,0,0,0,0,0,0,0-.2,0-.3,0-.5-.6,0-.9-.1-1.6-.1,0,0,0-.1-.1-.2,0,0,0,0,0,0,.9,0,1.4,0,2.4.2,0,0,0,.1,0,.2,0,0,0,0,0,0-.2,0-.3,0-.4,0,0,.6-.1,1-.2,1.6,0,0,0,0,0,0,0,0-.1-.1-.2-.2,0-.2,0-.3,0-.5,0,0,0,0,0,0,0,0-.2.1-.3.1-.1,0-.2,0-.3,0ZM22.9,12c0,0,.2,0,.2,0-.2-.2-.2-.3-.4-.5,0,0-.1,0-.1,0,0,0,0,0,0,.1,0,0,0,.1.1.2,0,0,.2,0,.3,0ZM22.9,11.4c.2.2.3.3.4.5,0,0,.1,0,.1-.1,0,0,0,0,0-.1,0,0,0-.1-.1-.2,0,0-.2,0-.3,0,0,0-.2,0-.2,0Z"/>
      <path class="st4" d="M25,12.9s0,0,0,0c-.1-.1-.2-.3-.3-.4,0-.1-.1-.2-.2-.3,0-.1,0-.2,0-.3,0-.1,0-.2.2-.3.1,0,.2,0,.4,0,.1,0,.2,0,.3.1,0,0,.1.1.2.2,0,0,.1,0,.2,0,0,0,.1,0,.2,0,0-.1,0-.2,0-.3-.6-.2-.9-.2-1.5-.4,0,0,0-.1,0-.2,0,0,0,0,0,0,1,.2,1.5.3,2.5.7,0,0,0,.1,0,.2,0,0,0,0,0,0-.3,0-.4-.1-.7-.2,0,.1,0,.2,0,.3,0,0,.1.1.2.2,0,0,0,.1,0,.2,0,0,0,.1,0,.2,0,0,0,.2-.2.2,0,0-.2.2-.4.2,0,0,0,0,0,0,0,0,0-.1-.2-.2.2,0,.3-.1.4-.2,0,0,.1-.1.2-.2,0,0,0-.1,0-.2,0,0,0,0-.1,0,0,0-.2,0-.3,0s-.2.1-.4.2c0,0-.1-.1-.2-.2,0,0,.1-.1.2-.2,0,0-.2-.2-.3-.2,0,0-.2,0-.2,0,0,0-.1.1-.1.2,0,0,0,.1,0,.2,0,0,0,.2.1.3,0,0,.2.2.3.4,0,0-.1,0-.2,0Z"/>
      <path class="st4" d="M26.3,10.7c0,.1.1.2.2.3-.1,0-.2,0-.3.1,0-.1-.1-.2-.2-.3.1,0,.2,0,.3-.1Z"/>
      <path class="st4" d="M27.7,13.9s0,0,0,0c0-.2-.1-.4-.2-.6,0-.2,0-.3,0-.4,0-.1.2-.2.3-.2.2,0,.3,0,.6.2.2,0,.3.1.5.2,0-.1,0-.2.2-.3-.5-.3-.8-.4-1.4-.6,0,0,0-.1,0-.2,0,0,0,0,0,0,.9.3,1.3.5,2.1,1,0,0,0,.1,0,.2,0,0,0,0,0,0-.2,0-.2-.1-.4-.2-.3.6-.5.8-.8,1.4,0,0,0,0,0,0,0-.1-.1-.2-.2-.3.2-.3.3-.5.4-.8-.2,0-.3-.1-.4-.2-.2,0-.3-.1-.4,0-.1,0-.2,0-.2.2,0,0,0,0,0,.1,0,0,0,0,0,.1,0,0,0,.1,0,.2,0,0,0,.2.1.3,0,0-.1,0-.2,0Z"/>
      <path class="st4" d="M29.6,15s0,0,0,0c0-.3,0-.5-.2-.9,0-.2,0-.3,0-.4,0,0,0-.1,0-.2,0,0,0,0,0,0s0,0,.1,0c0,0,0,0,.1,0,0,0,.1,0,.1.1,0,0,0,0,.1-.1,0,0,0,0,0-.1,0,0,0,0,0,0,0,0,0,0,0,0-.2-.2-.4-.2-.6-.4,0,0,0-.1,0-.2,0,0,0,0,0,0,1.1.7,2.2,1.5,3.1,2.4,0,0,0,.1,0,.2h0c-.1-.1-.2-.2-.3-.3-.4.5-.7.7-1.1,1.2,0,0,0,0,0,0,0-.1,0-.2-.1-.3.1-.1.2-.2.3-.3,0,0-.2,0-.2,0,0,0-.1,0-.2-.1-.1,0-.2-.2-.3-.3,0-.1,0-.2-.1-.3,0,0,0,0,0,0,0,0,0,0-.1,0,0,0-.1-.1-.2-.2,0,0-.1-.2-.2-.4,0,0,0,0-.2,0,0,0-.1,0-.2,0,.1.4.2.6.3.9,0,0-.1,0-.2,0ZM30.8,13.8c-.1-.1-.2-.2-.4-.3,0,0,0,0,0,.1,0,0,0,0,0,0,0,0,0,.1-.1.2,0,0,0,0-.1.1,0,0,0,.1.2.2,0,0,.1.1.2.2,0,0,0,0,.1,0,0,0,0-.1,0-.2.2,0,.3.1.4.2.1,0,.2,0,.2,0,0,0,0,0,0,0,0,0,0,0,0-.2-.2-.2-.3-.2-.5-.4ZM32,14.9c-.2-.2-.3-.3-.6-.5,0,.2,0,.3,0,.4,0,0-.1,0-.2,0,0,0-.2,0-.4-.1,0,0,0,.1,0,.2,0,0,0,.1,0,.2,0,0,0,.1.1.2,0,0,.1,0,.2.1,0,0,.2,0,.3,0,.2-.2.3-.4.5-.6Z"/>
    </g>
    <g>
      <path class="st0" d="M3.9,31.3c0-.1.2-.2.3-.3.1,0,.3-.1.4,0,0,0,.2,0,.2.1,0-.1,0-.3,0-.4,0-.1.2-.2.3-.3.1,0,.3-.1.4-.1.1,0,.2,0,.3,0,.1,0,.2.1.3.2s.2.2.2.3l.6,1.1-2.4,1.3-.7-1.2c-.2-.3-.2-.6,0-.8ZM4.8,32.5l.5-.3-.3-.6c0-.1-.1-.2-.2-.2,0,0-.2,0-.3,0-.1,0-.2.1-.2.3,0,0,0,.2.1.3l.3.5ZM5.8,32l.6-.4-.3-.6c0-.1-.1-.2-.2-.2-.1,0-.2,0-.4,0-.1,0-.2.2-.2.3,0,0,0,.2,0,.3l.3.6Z"/>
      <path class="st0" d="M5.4,29.8l-.2-.5.5-.2.2.5-.5.2Z"/>
      <path class="st0" d="M2.4,28l-.2-.6h2.9c0,0,.2.6.2.6l-2.4,1.7-.2-.6,1.8-1.2h-2.2Z"/>
      <path class="st0" d="M4.4,26.8v-.6c-.1,0,.4-.1.4-.1v.6c.1,0-.4.1-.4.1Z"/>
      <path class="st0" d="M1.7,23.2c0-.1,0-.2.2-.3,0,0,.1-.1.2-.2,0,0,.2,0,.3,0,.1,0,.3,0,.4,0,.1,0,.2.2.3.3,0-.1.1-.2.2-.3,0,0,.2,0,.4-.1h.2c.1,0,.2,0,.3,0,0,0,.1,0,.2-.1h0s0,.6,0,.6c0,0-.1,0-.1,0,0,0-.2,0-.2,0h-.3c-.2,0-.3,0-.3.1s0,.2,0,.3v.6s1.1,0,1.1,0v.6s-2.7.2-2.7.2v-1.3c0-.2,0-.3,0-.4ZM2.2,24.3h.7s0-.7,0-.7c0-.1,0-.2,0-.3,0-.1-.2-.2-.3-.1-.2,0-.3,0-.3.2,0,0,0,.2,0,.3v.6Z"/>
      <path class="st0" d="M2.2,20v1.5c-.1,0,.5,0,.5,0v-1.3c.1,0,.6,0,.6,0v1.3c-.1,0,.6,0,.6,0v-1.5c.1,0,.6,0,.6,0l-.2,2.1-2.8-.2.2-2h.5Z"/>
      <path class="st0" d="M2.3,17.6c.1-.2.3-.3.4-.4.2,0,.3,0,.5,0,.2,0,.3,0,.5,0,.4,0,.6.2.9.4.3.3.4.6.3,1l-.3,1.2-2.7-.6.3-1.2c0-.2,0-.3.2-.4ZM2.4,18.8l1.8.4v-.5c.2-.3,0-.5-.2-.6-.1,0-.3-.2-.5-.2-.3,0-.5,0-.7,0-.2,0-.3.2-.3.5v.5Z"/>
      <path class="st0" d="M3.2,14.8c.1-.2.3-.3.5-.3.2,0,.3,0,.5,0s.3,0,.4.1c.3.1.6.3.8.5.2.3.3.7.1,1.1l-.4,1.1-2.6-1,.4-1.1c0-.2.1-.3.2-.4ZM3.2,16l1.7.7.2-.5c0-.3,0-.5-.2-.7-.1-.1-.3-.2-.5-.3-.3-.1-.5-.1-.7-.1-.2,0-.3.2-.4.4l-.2.5Z"/>
      <path class="st0" d="M4.5,12.2l.3-.6,1.1,1.7.9.5-.3.5-.9-.5h-2s.3-.6.3-.6h1.3c0,0-.8-1-.8-1Z"/>
      <path class="st0" d="M7.5,11.2c.1,0,.2.1.3.1.1,0,.3,0,.4-.3,0-.1.2-.2.2-.3,0-.2,0-.3,0-.4,0,0-.1,0-.2,0,0,0-.2,0-.3.2l-.2.2c-.2.2-.4.3-.6.3-.2,0-.4,0-.6-.2-.2-.2-.3-.4-.3-.6,0-.2.1-.5.3-.8.2-.2.4-.4.7-.4.3,0,.5,0,.7.2l-.4.4c-.1,0-.3-.1-.4,0,0,0-.2.1-.3.2,0,.1-.2.2-.2.3,0,.1,0,.2.1.3,0,0,.2,0,.3,0,0,0,.2,0,.3-.2l.4-.3c.2-.1.3-.2.5-.2.2,0,.4,0,.6.2.2.2.3.4.3.6,0,.3-.1.5-.3.8-.2.3-.5.4-.7.5s-.5,0-.7-.2l.4-.4Z"/>
      <path class="st0" d="M9.4,7.2l-1.1,1,.4.4,1-.9.3.4-1,.9.5.5,1.1-1,.3.4-1.6,1.4-1.8-2.1,1.5-1.4.3.4Z"/>
      <path class="st0" d="M9.6,6.4l.5-.3,2,1-1.1-1.6.4-.3,1.5,2.3-.5.3-2-1,1.1,1.6-.4.3-1.5-2.3Z"/>
      <path class="st0" d="M13.9,7.1l-.5.3-1.3-2.5.5-.3,1.3,2.5Z"/>
      <path class="st0" d="M16.1,5.9c-.1.3-.4.5-.7.6-.4.1-.7.2-1,0-.4-.1-.6-.4-.8-.9-.2-.5-.2-.9,0-1.2.1-.3.4-.5.7-.6.4-.1.7-.2,1,0,.4.1.6.4.8.9.2.5.2.9,0,1.2ZM15.6,5.6c0-.2,0-.5,0-.7-.1-.3-.3-.5-.5-.6s-.4-.1-.6,0c-.2,0-.4.2-.4.4,0,.2,0,.5,0,.7s.3.5.5.6c.2.1.4.1.6,0,.2,0,.4-.2.4-.4Z"/>
      <path class="st0" d="M18,2.9c.1,0,.2,0,.3.1,0,0,.1.1.2.2,0,0,0,.2.1.3,0,.1,0,.3,0,.4,0,.1-.1.3-.3.3.1,0,.2,0,.3.2,0,0,.1.2.2.4v.2c0,.1,0,.2.1.2,0,0,0,.1.1.1h0c0,0-.6.2-.6.2,0,0,0-.1,0-.1,0,0,0-.1,0-.2v-.3c-.1-.2-.2-.3-.2-.3,0,0-.2,0-.3,0h-.6c0,.1.2,1.2.2,1.2h-.6c0,.1-.6-2.6-.6-2.6l1.3-.3c.2,0,.3,0,.4,0ZM16.9,3.5l.2.7h.6c.1-.2.2-.2.3-.2,0,0,.1-.2,0-.3,0-.2-.1-.3-.2-.3,0,0-.2,0-.3,0h-.6Z"/>
      <path class="st0" d="M20.7,4.4c0,.1,0,.2.1.3,0,.1.3.2.5.2.1,0,.3,0,.3,0,.2,0,.2-.2.2-.3,0,0,0-.2-.1-.2,0,0-.2,0-.4-.1h-.3c-.3-.1-.5-.2-.6-.3-.2-.1-.3-.3-.3-.6,0-.2,0-.5.3-.6.2-.2.4-.3.8-.3.3,0,.5,0,.8.2.2.2.3.4.3.7h-.6c0-.2,0-.3-.2-.3,0,0-.2,0-.3,0-.2,0-.3,0-.4,0,0,0-.1.1-.1.3,0,0,0,.2.1.2,0,0,.2,0,.4.1h.5c.2.2.4.2.5.3.2.1.3.3.3.6,0,.3,0,.5-.3.6s-.5.3-.8.3c-.4,0-.7,0-.9-.2s-.3-.4-.3-.7h.6Z"/>
      <path class="st0" d="M25,3.2l-1.5-.2v.6c0,0,1.3.2,1.3.2v.5c0,0-1.4-.2-1.4-.2v.7c0,0,1.4.2,1.4.2v.5c0,0-2.1-.2-2.1-.2l.3-2.8,2,.2v.5Z"/>
      <path class="st0" d="M26,3.2c.3-.2.6-.2.9-.1.4.1.7.4.9.7,0,.2,0,.4,0,.5h-.6c0-.3,0-.4,0-.5,0-.1-.2-.2-.4-.3-.2,0-.4,0-.5.1-.2.1-.3.4-.4.7s0,.5,0,.7c0,.2.2.3.4.3.2,0,.4,0,.5,0,0,0,.1-.1.2-.3h.6c-.1.4-.3.6-.6.8-.2.1-.5.2-.8,0-.4-.1-.6-.3-.8-.6-.2-.3-.2-.7,0-1.1.1-.5.3-.8.7-1Z"/>
      <path class="st0" d="M29.6,6.9c-.3.1-.6,0-1,0s-.6-.4-.7-.7c-.1-.4-.1-.8,0-1.2.2-.5.5-.8.8-.9.3-.1.6,0,1,0s.6.4.7.7c.2.3.1.8,0,1.2-.2.5-.5.7-.8.9ZM29.4,6.3c.2-.1.4-.3.5-.6.1-.3.2-.5.1-.7s-.2-.4-.4-.5c-.2,0-.4,0-.6,0-.2,0-.4.3-.5.6-.1.3-.2.5-.1.7s.2.4.4.5c.2,0,.4,0,.6,0Z"/>
      <path class="st0" d="M31.6,5l.5.3v2.2c-.1,0,.9-1.6.9-1.6l.5.3-1.5,2.3-.5-.3v-2.3c.1,0-.9,1.7-.9,1.7l-.5-.3,1.5-2.3Z"/>
      <path class="st0" d="M35.2,7.8c.1.2.1.4.1.6,0,.2,0,.3-.1.5,0,.1-.2.3-.3.4-.2.3-.5.5-.8.6-.4.1-.7,0-1-.2l-.9-.8,1.8-2.1.9.8c.1.1.2.2.3.3ZM34.2,7.4l-1.2,1.4.4.4c.2.2.4.2.7,0,.1,0,.3-.2.4-.3.2-.2.3-.4.3-.6s0-.3-.2-.5l-.4-.4Z"/>
      <path class="st0" d="M36.8,9.3l.4.5-1.5,2.5-.4-.5.3-.5-.7-.8-.6.2-.4-.5,2.8-1ZM35.4,10.4l.5.5.6-1-1.1.4Z"/>
      <path class="st0" d="M39,12.6c0,.1,0,.2,0,.3,0,0,0,.2-.1.2,0,0-.1.1-.2.2-.1,0-.2.1-.4.1-.1,0-.3,0-.4-.1,0,.1,0,.3,0,.3,0,0-.2.2-.3.3h-.2c-.1.2-.2.2-.2.2,0,0,0,.1,0,.2h0s-.3-.5-.3-.5c0,0,0,0,.1-.1,0,0,.1-.1.2-.1h.2c.1-.2.2-.3.3-.4s0-.2,0-.3l-.3-.5-.9.6-.3-.5,2.4-1.5.7,1.1c0,.2.2.3.2.4ZM38,11.8l-.6.4.3.5c0,.1.1.2.2.2.1,0,.2,0,.4,0,.1,0,.2-.2.2-.3,0,0,0-.2,0-.3l-.3-.5Z"/>
      <path class="st0" d="M40.2,14.9l.3.6h-2c0-.1-1,.3-1,.3l-.2-.5,1-.4,1.2-1.6.3.6-.9,1h1.3Z"/>
      <path class="st0" d="M39.2,17.9c-.1,0-.2.1-.3.2,0,.1-.1.3,0,.5,0,.1,0,.2.1.3,0,.1.2.2.4.2,0,0,.1,0,.2-.2,0,0,0-.2,0-.4v-.3c0-.3,0-.5,0-.6,0-.2.3-.3.5-.4.2,0,.5,0,.7.1s.3.4.4.7c0,.3,0,.6,0,.8-.1.2-.3.4-.6.5v-.5s.1-.1.2-.3c0-.1,0-.2,0-.4,0-.1,0-.3-.2-.3,0,0-.2-.1-.3,0,0,0-.2,0-.2.2,0,0,0,.2,0,.4v.5c0,.2,0,.4,0,.5,0,.2-.3.3-.5.4-.2,0-.5,0-.7-.1-.2-.2-.3-.4-.4-.8,0-.4,0-.7,0-.9.1-.2.3-.4.6-.5v.5Z"/>
      <path class="st0" d="M41.3,20.1c.2.2.4.5.4.8,0,.5,0,.8-.4,1-.2.1-.3.2-.5.2v-.6c0,0,.2-.1.2-.2.1-.1.2-.3.1-.5,0-.2-.1-.4-.3-.5-.2-.1-.4-.1-.7-.1-.3,0-.5.1-.7.2-.1.1-.2.3-.2.5,0,.2,0,.3.2.4,0,0,.2,0,.3.1v.6c-.3,0-.5-.1-.7-.3-.2-.2-.3-.4-.3-.8,0-.4,0-.7.3-1,.2-.2.6-.4,1-.4.5,0,.9,0,1.1.3Z"/>
      <path class="st0" d="M39,22.6l2.8.2v.6s-1.1,0-1.1,0v1.1c0,0,1,0,1,0v.6s-2.8-.2-2.8-.2v-.6s1.3,0,1.3,0v-1.1c0,0-1.2,0-1.2,0v-.6Z"/>
      <path class="st0" d="M38.5,27.3c-.2-.3-.2-.6-.1-1s.3-.7.5-.8c.3-.2.7-.3,1.2-.2.5.1.8.3,1,.7.2.3.2.6.1,1s-.3.7-.5.8c-.3.2-.7.3-1.2.2-.5-.1-.8-.3-1-.7ZM39,27c.1.2.4.3.7.4.3,0,.6,0,.7,0s.3-.3.4-.5,0-.4-.1-.6c-.1-.2-.4-.3-.7-.4s-.6,0-.7,0c-.2,0-.3.3-.4.5s0,.4.1.6Z"/>
      <path class="st0" d="M37.6,29.9c-.1-.3-.1-.6,0-1,.1-.4.4-.6.6-.7.4-.2.8-.1,1.2,0,.5.2.8.5.9.8.1.3.1.6,0,1-.1.4-.4.6-.6.7-.3.2-.7.2-1.2,0-.5-.2-.8-.5-.9-.8ZM38.1,29.7c.1.2.3.3.6.5.3.1.5.1.7,0,.2,0,.4-.2.4-.4,0-.2,0-.4,0-.6-.1-.2-.3-.3-.6-.5-.3-.1-.5-.1-.7,0s-.4.2-.4.4c0,.2,0,.4,0,.6Z"/>
      <path class="st0" d="M39.4,31.8l-.3.5-2-1.1-.7,1.2-.4-.3,1-1.7,2.4,1.4Z"/>
    </g>
    <path class="st0" d="M9.7,35.3c.3,0,.6,0,.9.3.4.3.5.6.5,1,0,.2,0,.4-.2.5l-.4-.4c0-.1,0-.2,0-.3,0-.2,0-.3-.2-.4-.2-.1-.3-.2-.5-.1s-.4.2-.6.4-.3.5-.3.7,0,.4.2.5c.2.1.3.2.5.1,0,0,.2,0,.3-.2l.4.4c-.2.2-.5.3-.8.3-.3,0-.5,0-.8-.3-.3-.3-.5-.6-.5-.9,0-.3.1-.7.4-1,.3-.4.7-.6,1-.6Z"/>
    <path class="st0" d="M10.2,39l1.5-2.4.5.3-.6.9.9.6.6-.9.5.3-1.5,2.4-.5-.3.7-1.1-.9-.6-.7,1.1-.5-.3Z"/>
    <path class="st0" d="M13.2,40.7l-.5-.3,1.2-2.5.5.3-1.2,2.5Z"/>
    <path class="st0" d="M16.6,39.1l-.2.5-.8-.3-.8,2.1-.5-.2.8-2.1-.8-.3.2-.5,2.1.8Z"/>
    <path class="st0" d="M18.8,39.6v.5c-.1,0-.9-.2-.9-.2l-.5,2.2h-.6c0-.1.5-2.4.5-2.4l-.8-.2v-.5c.1,0,2.3.5,2.3.5Z"/>
    <path class="st0" d="M20.7,42.3c-.2.2-.5.3-.9.2s-.7-.2-.9-.4c-.3-.3-.4-.7-.3-1.2,0-.5.2-.9.5-1.1.2-.2.5-.3.9-.2.4,0,.7.2.9.4.3.3.4.7.3,1.2,0,.5-.2.9-.5,1.1ZM20.4,41.8c.1-.2.2-.4.3-.7,0-.3,0-.6-.1-.7-.1-.2-.3-.3-.5-.3s-.4,0-.6.2-.2.4-.3.7,0,.6.1.7c.1.2.3.3.5.3.2,0,.4,0,.6-.2Z"/>
    <path class="st0" d="M23.9,42.2c-.2.2-.5.4-.9.4-.4,0-.7,0-.9-.3-.3-.2-.5-.6-.5-1.1,0-.5,0-.9.3-1.2.2-.2.5-.4.9-.4.4,0,.7,0,.9.3.3.2.5.6.5,1.1,0,.5,0,.9-.3,1.2ZM23.5,41.8c.1-.2.2-.4.2-.7,0-.3-.1-.5-.2-.7s-.3-.2-.6-.2-.4.1-.5.3c-.1.2-.2.4-.2.7s.1.5.3.7c.1.2.3.2.6.2.2,0,.4-.1.5-.3Z"/>
    <path class="st0" d="M26.1,39.3c.1,0,.2,0,.3.1,0,0,.1.1.2.2,0,0,0,.2.1.3,0,.1,0,.3,0,.4,0,.1-.1.3-.3.3.1,0,.2,0,.3.2,0,0,.1.2.2.4v.2c0,.1,0,.2.1.2,0,0,0,.1.1.1h0c0,0-.6.2-.6.2,0,0,0-.1,0-.1,0,0,0-.1,0-.2v-.3c-.1-.2-.2-.3-.2-.3s-.2,0-.3,0h-.6c0,.1.2,1.2.2,1.2h-.6c0,.1-.6-2.6-.6-2.6l1.3-.3c.2,0,.3,0,.4,0ZM25,39.9l.2.7h.6c.1-.2.2-.2.3-.2,0,0,.1-.2,0-.3,0-.2-.1-.3-.2-.3,0,0-.2,0-.3,0h-.6Z"/>
    <path class="st0" d="M27.9,42c0,0,.2-.1.2-.2,0,0,0-.2,0-.3h-.3c0,.1-.2-.4-.2-.4l.5-.2.2.5c0,0,0,.2,0,.3,0,0,0,.2,0,.3,0,0,0,.2-.2.2,0,0-.1.1-.2.1v-.2Z"/>
    <path class="st0" d="M29.3,38l.6-.3,2.1,2-.6.3-.4-.4-.9.5v.6c0,0-.4.3-.4.3l-.4-2.9ZM30.1,39.5l.6-.3-.8-.8.2,1.1Z"/>
    <path class="st0" d="M32.1,38.9l.5-.3.3.5-.5.3-.3-.5Z"/>
    <path class="st0" d="M34.2,36.6c0,.2-.2.4-.4.6l-.4.4.6.8-.4.4-1.7-2.2.9-.7c.2-.2.4-.3.6-.2s.4.1.6.4c.2.3.3.5.2.7ZM33.2,36.1c0,0-.2,0-.3.1l-.4.3.5.6.4-.3c.1,0,.2-.2.2-.3s0-.2-.1-.3c0-.1-.2-.2-.3-.2Z"/>
    <path class="st0" d="M34.7,37l.4-.4.4.4-.4.4-.4-.4Z"/>
    <polygon class="st3" points="7.2 33.2 7.4 34 8.2 34 7.6 34.5 7.8 35.3 7.2 34.8 6.5 35.3 6.8 34.5 6.1 34 6.9 34 7.2 33.2"/>
    <polygon class="st3" points="36.2 33.2 36.5 34 37.3 34 36.6 34.5 36.9 35.3 36.2 34.8 35.6 35.3 35.8 34.5 35.1 34 36 34 36.2 33.2"/>
  </g>
  <g>
    <g>
      <path class="st4" d="M62.8,8.6c.5.7.7,1.5.7,2.4s-.2,1.7-.7,2.3c-.3.3-.7.6-1.2.9.8.3,1.4.8,1.8,1.4.4.6.6,1.4.6,2.3s-.2,1.8-.7,2.5c-.3.5-.7.9-1.1,1.3-.5.4-1.1.7-1.8.8-.7.1-1.4.2-2.2.2h-7.2V7h7.7c1.9,0,3.3.6,4.1,1.7ZM54.2,9.7v3.5h3.9c.7,0,1.2-.1,1.7-.4.4-.3.6-.7.6-1.4s-.3-1.2-.9-1.5c-.5-.2-1.1-.2-1.9-.2h-3.5ZM54.2,15.8v4.2h3.9c.7,0,1.2,0,1.6-.3.7-.3,1-1,1-2s-.3-1.4-1-1.7c-.4-.2-.9-.3-1.6-.3h-3.9Z"/>
      <path class="st4" d="M66.6,19.6h3.3v3.2h-3.3v-3.2Z"/>
      <path class="st4" d="M82.4,7h3.4l-5.4,15.9h-3.1l-5.4-15.9h3.5l3.4,12.1,3.5-12.1Z"/>
      <path class="st4" d="M85.5,19.6h3.3v3.2h-3.3v-3.2Z"/>
      <path class="st4" d="M108.2,7.4c.6.3,1.1.6,1.5,1.1.3.4.6.8.8,1.3.2.5.3,1,.3,1.7s-.2,1.5-.6,2.2c-.4.7-1,1.2-1.9,1.5.7.3,1.3.7,1.6,1.3.3.5.5,1.4.5,2.5v1.1c0,.7,0,1.2,0,1.5,0,.4.3.7.6.9v.4h-3.7c-.1-.4-.2-.6-.2-.9,0-.4-.1-.9-.1-1.4v-1.5c0-1-.2-1.7-.5-2-.3-.3-1-.5-1.9-.5h-3.2v6.2h-3.2V7h7.6c1.1,0,1.9.2,2.5.4ZM101.3,9.7v4.3h3.6c.7,0,1.2,0,1.6-.3.6-.3.9-.9.9-1.8s-.3-1.6-.9-1.9c-.3-.2-.9-.3-1.5-.3h-3.7Z"/>
      <path class="st4" d="M125.7,9.8h-8.4v3.4h7.7v2.8h-7.7v4.1h8.8v2.9h-12V7h11.7v2.8Z"/>
      <path class="st4" d="M138,7.3c1.1.4,2,1,2.7,2,.6.8.9,1.6,1.1,2.6.2.9.3,1.8.3,2.6,0,2.1-.4,3.9-1.3,5.4-1.2,2-2.9,3-5.3,3h-6.9V7h6.9c1,0,1.8.1,2.5.3ZM131.9,9.7v10.4h3.1c1.6,0,2.7-.8,3.3-2.3.3-.8.5-1.9.5-3s-.3-2.9-.8-3.7c-.5-.9-1.5-1.3-3-1.3h-3.1Z"/>
      <path class="st4" d="M153.9,7.3c1.1.4,2,1,2.7,2,.6.8.9,1.6,1.1,2.6.2.9.3,1.8.3,2.6,0,2.1-.4,3.9-1.3,5.4-1.2,2-2.9,3-5.3,3h-6.9V7h6.9c1,0,1.8.1,2.5.3ZM147.9,9.7v10.4h3.1c1.6,0,2.7-.8,3.3-2.3.3-.8.5-1.9.5-3s-.3-2.9-.8-3.7c-.5-.9-1.5-1.3-3-1.3h-3.1Z"/>
      <path class="st4" d="M169.6,7h3.8l-5.3,9.9v6h-3.3v-6l-5.5-9.9h3.9l3.3,6.9,3.2-6.9Z"/>
    </g>
    <g>
      <path class="st1" d="M52.2,36c0,.3.1.5.2.6.2.2.6.4,1.1.4s.5,0,.7,0c.4-.1.5-.4.5-.7s0-.3-.3-.5c-.2-.1-.4-.2-.8-.3h-.6c-.6-.3-1.1-.4-1.3-.6-.4-.3-.6-.7-.6-1.3s.2-1,.6-1.3c.4-.4,1-.5,1.7-.5s1.2.2,1.6.5c.4.3.7.8.7,1.4h-1.2c0-.4-.2-.6-.5-.8-.2,0-.4-.1-.7-.1s-.6,0-.8.2-.3.3-.3.5,0,.4.3.5c.1,0,.4.2.8.2l1,.2c.5.1.8.3,1,.4.4.3.5.7.5,1.2s-.2,1-.6,1.4c-.4.4-1,.5-1.8.5s-1.4-.2-1.9-.5c-.4-.4-.7-.8-.7-1.5h1.2Z"/>
      <path class="st1" d="M61.2,33h-3.2v1.3h2.9v1h-2.9v1.5h3.3v1.1h-4.5v-6h4.4v1.1Z"/>
      <path class="st1" d="M62.3,31.9h1.3l2.4,4.2v-4.2h1.2v6h-1.2l-2.4-4.2v4.2h-1.2v-6Z"/>
      <path class="st1" d="M69.4,37.9h-1.2v-6h1.2v6Z"/>
      <path class="st1" d="M75.2,37.4c-.5.5-1.1.7-2,.7s-1.5-.2-2-.7c-.6-.6-.9-1.4-.9-2.5s.3-1.9.9-2.5c.4-.5,1.1-.7,2-.7s1.5.2,2,.7c.6.5.9,1.4.9,2.5s-.3,1.9-.9,2.5ZM74.4,36.4c.3-.4.4-.9.4-1.6s-.1-1.2-.4-1.6c-.3-.4-.7-.5-1.2-.5s-.9.2-1.2.5-.4.9-.4,1.6.1,1.2.4,1.6.7.5,1.2.5.9-.2,1.2-.5Z"/>
      <path class="st1" d="M80.9,32.1c.2,0,.4.2.6.4.1.2.2.3.3.5,0,.2.1.4.1.6s0,.6-.2.8c-.1.3-.4.5-.7.6.3.1.5.3.6.5.1.2.2.5.2.9v.4c0,.3,0,.5,0,.6,0,.2.1.3.2.3h0c0,.1-1.4.1-1.4.1,0-.1,0-.2,0-.3,0-.2,0-.3,0-.5v-.6c0-.4,0-.6-.2-.8-.1-.1-.4-.2-.7-.2h-1.2v2.3h-1.2v-6h2.8c.4,0,.7,0,.9.2ZM78.3,33v1.6h1.3c.3,0,.5,0,.6,0,.2-.1.4-.3.4-.7s-.1-.6-.3-.7c-.1,0-.3-.1-.6-.1h-1.4Z"/>
      <path class="st1" d="M86.2,36c0,.3.1.5.2.6.2.2.6.4,1.1.4s.5,0,.7,0c.4-.1.5-.4.5-.7s0-.3-.3-.5c-.2-.1-.4-.2-.8-.3h-.6c-.6-.3-1.1-.4-1.3-.6-.4-.3-.6-.7-.6-1.3s.2-1,.6-1.3c.4-.4,1-.5,1.7-.5s1.2.2,1.6.5c.4.3.7.8.7,1.4h-1.2c0-.4-.2-.6-.5-.8-.2,0-.4-.1-.7-.1s-.6,0-.8.2-.3.3-.3.5,0,.4.3.5c.1,0,.4.2.8.2l1,.2c.5.1.8.3,1,.4.4.3.5.7.5,1.2s-.2,1-.6,1.4c-.4.4-1,.5-1.8.5s-1.4-.2-1.9-.5c-.4-.4-.7-.8-.7-1.5h1.2Z"/>
      <path class="st1" d="M95.2,33h-3.2v1.3h2.9v1h-2.9v1.5h3.3v1.1h-4.5v-6h4.4v1.1Z"/>
      <path class="st1" d="M96.9,32.5c.5-.5,1.1-.7,1.8-.7s1.7.3,2.2,1c.3.4.4.7.4,1.1h-1.2c0-.3-.2-.5-.3-.6-.2-.3-.6-.4-1-.4s-.8.2-1,.5c-.3.4-.4.9-.4,1.6s.1,1.2.4,1.5c.3.3.6.5,1,.5s.8-.1,1-.4c.1-.2.2-.4.3-.7h1.2c-.1.6-.4,1.2-.8,1.6-.4.4-1,.6-1.7.6s-1.5-.3-2-.8c-.5-.6-.7-1.3-.7-2.3s.3-1.8.8-2.4Z"/>
      <path class="st1" d="M106.9,37.4c-.5.5-1.1.7-2,.7s-1.5-.2-2-.7c-.6-.6-.9-1.4-.9-2.5s.3-1.9.9-2.5c.4-.5,1.1-.7,2-.7s1.5.2,2,.7c.6.5.9,1.4.9,2.5s-.3,1.9-.9,2.5ZM106.1,36.4c.3-.4.4-.9.4-1.6s-.1-1.2-.4-1.6c-.3-.4-.7-.5-1.2-.5s-.9.2-1.2.5-.4.9-.4,1.6.1,1.2.4,1.6.7.5,1.2.5.9-.2,1.2-.5Z"/>
      <path class="st1" d="M108.8,31.9h1.3l2.4,4.2v-4.2h1.2v6h-1.2l-2.4-4.2v4.2h-1.2v-6Z"/>
      <path class="st1" d="M118.2,32.1c.4.1.8.4,1,.8.2.3.3.6.4,1s.1.7.1,1c0,.8-.2,1.5-.5,2-.4.7-1.1,1.1-2,1.1h-2.6v-6h2.6c.4,0,.7,0,.9.1ZM116,33v3.9h1.1c.6,0,1-.3,1.2-.9.1-.3.2-.7.2-1.1s0-1.1-.3-1.4c-.2-.3-.6-.5-1.1-.5h-1.1Z"/>
      <path class="st1" d="M122.4,31.9h1.4l2.1,6h-1.4l-.4-1.2h-2.2l-.4,1.2h-1.3l2.1-6ZM122.4,35.6h1.5l-.8-2.3-.8,2.3Z"/>
      <path class="st1" d="M130.5,32.1c.2,0,.4.2.6.4.1.2.2.3.3.5,0,.2.1.4.1.6s0,.6-.2.8c-.1.3-.4.5-.7.6.3.1.5.3.6.5.1.2.2.5.2.9v.4c0,.3,0,.5,0,.6,0,.2.1.3.2.3h0c0,.1-1.4.1-1.4.1,0-.1,0-.2,0-.3,0-.2,0-.3,0-.5v-.6c0-.4,0-.6-.2-.8-.1-.1-.4-.2-.7-.2h-1.2v2.3h-1.2v-6h2.8c.4,0,.7,0,.9.2ZM128,33v1.6h1.3c.3,0,.5,0,.6,0,.2-.1.4-.3.4-.7s-.1-.6-.3-.7c-.1,0-.3-.1-.6-.1h-1.4Z"/>
      <path class="st1" d="M135.8,31.9h1.4l-2,3.7v2.2h-1.2v-2.2l-2.1-3.7h1.5l1.2,2.6,1.2-2.6Z"/>
      <path class="st1" d="M141,36c0,.3.1.5.2.6.2.2.6.4,1.1.4s.5,0,.7,0c.4-.1.5-.4.5-.7s0-.3-.3-.5c-.2-.1-.4-.2-.8-.3h-.6c-.6-.3-1.1-.4-1.3-.6-.4-.3-.6-.7-.6-1.3s.2-1,.6-1.3c.4-.4,1-.5,1.7-.5s1.2.2,1.6.5c.4.3.7.8.7,1.4h-1.2c0-.4-.2-.6-.5-.8-.2,0-.4-.1-.7-.1s-.6,0-.8.2-.3.3-.3.5,0,.4.3.5c.1,0,.4.2.8.2l1,.2c.5.1.8.3,1,.4.4.3.5.7.5,1.2s-.2,1-.6,1.4c-.4.4-1,.5-1.8.5s-1.4-.2-1.9-.5c-.4-.4-.7-.8-.7-1.5h1.2Z"/>
      <path class="st1" d="M146.2,32.5c.5-.5,1.1-.7,1.8-.7s1.7.3,2.2,1c.3.4.4.7.4,1.1h-1.2c0-.3-.2-.5-.3-.6-.2-.3-.6-.4-1-.4s-.8.2-1,.5c-.3.4-.4.9-.4,1.6s.1,1.2.4,1.5c.3.3.6.5,1,.5s.8-.1,1-.4c.1-.2.2-.4.3-.7h1.2c-.1.6-.4,1.2-.8,1.6-.4.4-1,.6-1.7.6s-1.5-.3-2-.8c-.5-.6-.7-1.3-.7-2.3s.3-1.8.8-2.4Z"/>
      <path class="st1" d="M151.6,37.9v-6h1.2v2.3h2.3v-2.3h1.2v6h-1.2v-2.7h-2.3v2.7h-1.2Z"/>
      <path class="st1" d="M162.1,37.4c-.5.5-1.1.7-2,.7s-1.5-.2-2-.7c-.6-.6-.9-1.4-.9-2.5s.3-1.9.9-2.5c.4-.5,1.1-.7,2-.7s1.5.2,2,.7c.6.5.9,1.4.9,2.5s-.3,1.9-.9,2.5ZM161.4,36.4c.3-.4.4-.9.4-1.6s-.1-1.2-.4-1.6c-.3-.4-.7-.5-1.2-.5s-.9.2-1.2.5-.4.9-.4,1.6.1,1.2.4,1.6.7.5,1.2.5.9-.2,1.2-.5Z"/>
      <path class="st1" d="M168.6,37.4c-.5.5-1.1.7-2,.7s-1.5-.2-2-.7c-.6-.6-.9-1.4-.9-2.5s.3-1.9.9-2.5c.4-.5,1.1-.7,2-.7s1.5.2,2,.7c.6.5.9,1.4.9,2.5s-.3,1.9-.9,2.5ZM167.8,36.4c.3-.4.4-.9.4-1.6s-.1-1.2-.4-1.6c-.3-.4-.7-.5-1.2-.5s-.9.2-1.2.5-.4.9-.4,1.6.1,1.2.4,1.6.7.5,1.2.5.9-.2,1.2-.5Z"/>
      <path class="st1" d="M170.4,31.9h1.2v4.9h3v1.1h-4.2v-6Z"/>
    </g>
  </g>
</svg>